# xmcd CD database file
#
# Track frame offsets:
#	150
#	12440
#	26570
#	43792
#	59252
#	81967
#	96920
#	110527
#	125812
#	152452
#
# Disc length: 2224 seconds
#
# Revision: 2
# Processed by: cddbd v1.5.1PL0 Copyright (c) Steve Scherf et al.
# Submitted via: CDex 1.50
#
DISCID=7f08ae0a
DTITLE=Sandi Patty - Love Overflowing
DYEAR=1990
DGENRE=Christian
TTITLE0=Down In My Heart
TTITLE1=Keeper Of The Well
TTITLE2=Love Overflowing
TTITLE3=So Far
TTITLE4=When The Time Comes
TTITLE5=The Home Of The Lord
TTITLE6=Sombody Believed
TTITLE7=In His Hand
TTITLE8=We Shall Behold Him
TTITLE9=I Will Praise Him
EXTD=YEAR: 1990
EXTT0=
EXTT1=
EXTT2=
EXTT3=
EXTT4=
EXTT5=
EXTT6=
EXTT7=
EXTT8=
EXTT9=
PLAYORDER=
